<?xml version="1.0" encoding="utf-8"?>
<!-- Generator: Adobe Illustrator 26.0.1, SVG Export Plug-In . SVG Version: 6.00 Build 0)  -->
<svg version="1.1" id="Layer_1" xmlns="http://www.w3.org/2000/svg" xmlns:xlink="http://www.w3.org/1999/xlink" x="0px" y="0px"
	 viewBox="0 0 860.1 600.1" style="enable-background:new 0 0 860.1 600.1;" xml:space="preserve">
<style type="text/css">
	.st0{fill:#F2F2F2;}
	.st1{fill:#E4E4E4;}
	.st2{fill:#CACACA;}
	.st3{fill:#FFFFFF;}
	.st4{fill:#FD6584;}
	.st5{fill:#F0F0F0;}
	.st6{fill:#2F2E41;}
	.st7{fill:#9E616A;}
	.st8{fill:#FFB8B8;}
</style>
<path class="st0" d="M407,175.3c6.8-11.2,14.9-23.2,27.5-26.9c14.6-4.3,29.6,4.2,42.3,12.5c38.1,24.9,74.7,51.9,109.8,80.9l0,0.4
	c-27.3-1.9-54.6-3.8-81.9-5.7c-19.7-1.4-40.1-2.9-57.6-12.2c-6.6-3.5-13.1-8.3-20.6-8.6c-9.3-0.4-17.4,6.1-23.8,12.9
	c-37.8,40.2-48.7,101.7-91.1,137C338.3,299.8,370.2,236.1,407,175.3z"/>
<path class="st1" d="M174.8,516.4c4.2-5.3,5.9-6.5,10-11.8c33.5-43.4,65.1-88.2,94.6-134.5c20-31.5,39.1-63.5,57.2-96.2
	c8.6-15.5,17-31.2,25.1-46.9c6.3-12.2,12.5-24.5,18.5-36.9c1.7-3.5,3.4-7.1,5.1-10.6c3.9-8.4,7.8-16.8,11.9-25
	c4.7-9.4,10.4-19.3,19.1-25.6c3.9-3,8.6-4.8,13.6-5.2c7-0.5,13.5,2.5,19.7,5.6c44.8,23.5,86.5,52.3,124.4,85.8
	c38,33.3,71.9,71,101.1,112.2c0.9,1.3,3,0.1,2.1-1.2c-3.6-5-7.2-10-10.9-14.9c-45.9-61-102.2-113.5-166.3-155.1
	c-10.8-7-21.8-13.6-33-20c-5.6-3.2-11.3-6.3-17.1-9.3c-5.6-2.9-11.6-5.5-18.1-5.6c-22-0.3-33.3,24.5-41.1,41.3
	c-2.5,5.3-4.9,10.5-7.5,15.7c-9.5,19.9-19.4,39.6-29.6,59.1c-6.3,12-12.8,24-19.4,35.9c-20.5,37.1-42.3,73.4-65.4,108.9
	c-30.6,47.1-60.9,88.7-95.8,132.8C172.2,515.9,173.9,517.6,174.8,516.4z"/>
<path class="st1" d="M576.1,202.6c1.3-1.4,2.5-2.8,3.8-4.3c10.1-11.2,21-22.3,34.9-28.7c6.6-3.2,13.9-4.8,21.2-4.9
	c7.6,0,15,2,22,4.8c3.3,1.3,6.6,2.8,9.8,4.4c3.6,1.8,7.2,3.8,10.8,5.8c6.7,3.7,13.3,7.6,19.8,11.6c13,8,25.5,16.7,37.7,25.9
	c6.3,4.8,12.5,9.7,18.5,14.9c5.6,4.7,11.1,9.6,16.5,14.6c1.2,1.1,2.9-0.7,1.7-1.7c-1.4-1.3-2.9-2.6-4.3-3.9
	c-4.1-3.7-8.2-7.3-12.4-10.8c-7.6-6.5-15.5-12.7-23.5-18.6c-12.5-9.3-25.4-17.9-38.8-25.9c-6.7-4-13.5-7.8-20.3-11.5
	c-2.1-1.1-4.2-2.2-6.3-3.2c-4.8-2.4-9.8-4.5-15-6.1c-7.3-2.4-15-3.1-22.6-2.2c-7.3,1.1-14.4,3.5-20.8,7.2
	c-13.7,7.6-24.2,19.4-34.5,30.9C573.3,202.1,575,203.8,576.1,202.6z"/>
<path class="st1" d="M296.4,318.7l-32.7-12l-16.2-5.9c-5.3-1.9-10.6-4.1-16-5.5c-4.8-1.4-9.8-1.3-14.5,0.2c-4.2,1.6-8.1,3.9-11.3,7
	c-3.3,3.1-6.4,6.4-9.3,9.9c-3.5,4.2-7,8.5-10.5,12.8c-14.4,17.7-28.8,35.4-43,53.2c-14.3,17.8-28.4,35.7-42.5,53.7
	c-14.1,18-28.1,36.1-42,54.3c-1.7,2.2-3.4,4.5-5.1,6.7c-0.9,1.2-3.1,0-2.1-1.2c14-18.3,28.1-36.6,42.3-54.8
	c14.2-18.2,28.6-36.4,43-54.5c14.4-18.1,29-36.1,43.6-54c3.6-4.5,7.3-8.9,11-13.4c3.1-3.8,6.1-7.6,9.5-11.1
	c6.2-6.4,14-12.1,23.3-12.3c5.5-0.1,10.7,1.6,15.8,3.5c5.5,2,10.9,4,16.4,6l32.9,12l8.2,3C298.5,316.9,297.8,319.2,296.4,318.7
	L296.4,318.7z"/>
<path class="st0" d="M619.1,183.8c16.6-8.5,37.9-6.9,53.2,3.8c-29.1,5-58,11.8-86.3,20.1C597.7,200.8,606.9,190,619.1,183.8z"/>
<path class="st0" d="M672.4,187.6l3.2,2.6c-1.1-0.9-2.2-1.8-3.4-2.6C672.3,187.6,672.4,187.6,672.4,187.6z"/>
<path class="st0" d="M206.8,318.8c3.2-3.9,6.7-8,11.5-9.6l4.5,0.2c-34.2,60.5-80.5,113.3-135.8,155.3
	C126.9,416,166.8,367.4,206.8,318.8z"/>
<path class="st0" d="M812.1,286.6c-2.9-2.9-6.8-4.5-10.9-4.5v-9c0-8.6-7-15.6-15.6-15.6c0,0,0,0,0,0v-6.8h3.7c3.3,0,6-2.7,6-6
	s-2.7-6-6-6h-3.7V234h-1.8v4.7h-4.4c-3.3,0-6,2.7-6,6s2.7,6,6,6l0,0h4.4v6.8h-11.5c-4.6,0-8.3,3.7-8.3,8.3c0,0,0,0,0,0V282h-2.6
	c-17.2,0-31.1,13.9-31.1,31.1c0,0,0,0,0,0V335c-11.5,3.3-20.3,12.6-23,24.3h-13.6v-13.8h-8.3v-5.8h5.1c3.3,0,6-2.7,6-6s-2.7-6-6-6
	h-5.1v-3.8h-1.8v3.8h-3.1c-3.3,0-6,2.7-6,6s2.7,6,6,6h3.1v5.8c-4.4,0.3-7.8,3.9-7.8,8.3v5.5c-16.5,0.9-29.4,14.6-29.4,31.1v127.5h84
	v0h86.4V297.4C816.6,293.4,815,289.4,812.1,286.6z"/>
<path class="st0" d="M638.3,282v-9c0-8.6-7-15.6-15.6-15.6l0,0l0,0v-8.8h3.6c3.3,0,6-2.7,6-6s-2.7-6-6-6h-3.6V234h-1.8v2.7h-4.5
	c-3.3,0-6,2.7-6,6s2.7,6,6,6h4.5v8.8h-11.5c-4.6,0-8.3,3.7-8.3,8.3c0,0,0,0,0,0V282h-2.6c-17.2,0-31.1,13.9-31.1,31.1v20.2
	c-10.6,4.6-18.1,14.4-19.7,25.9h-17v-13.8h-8.3v-7.8h3c3.3,0,6-2.7,6-6s-2.7-6-6-6h-3v-1.8h-1.8v1.8h-5.2c-3.3,0-6,2.7-6,6
	s2.7,6,6,6h5.2v7.8c-4.4,0.3-7.8,3.9-7.8,8.3v5.5c-16.5,0.9-29.4,14.6-29.4,31.1v127.5h170.5V297.4C653.7,288.9,646.8,282,638.3,282
	C638.3,282,638.3,282,638.3,282z"/>
<path class="st2" d="M860.1,518.6c0,0.7-0.5,1.2-1.2,1.2c0,0,0,0,0,0L266.2,520l-2.1,0l-122.3,0h-2l-104.1,0h-2l-32.5,0
	c-0.7,0-1.2-0.5-1.2-1.2s0.5-1.2,1.2-1.2l32.8,0h2l104.1,0h2l121.4,0h2.1l103.4,0h1.4l488.6-0.2
	C859.6,517.4,860.1,517.9,860.1,518.6C860.1,518.6,860.1,518.6,860.1,518.6z"/>
<path class="st2" d="M860.1,598.6c0,0.7-0.5,1.2-1.2,1.2c0,0,0,0,0,0L266.2,600l-2.1,0l-122.3,0h-2l-104.1,0h-2l-32.5,0
	c-0.7,0-1.2-0.5-1.2-1.2s0.5-1.2,1.2-1.2l32.8,0h2l104.1,0h2l121.4,0h2.1l103.4,0h1.4l488.6-0.2
	C859.6,597.4,860.1,597.9,860.1,598.6C860.1,598.6,860.1,598.6,860.1,598.6z"/>
<rect x="525.1" y="405.3" class="st3" width="11.5" height="9.2"/>
<rect x="506.2" y="405.3" class="st3" width="11.5" height="9.2"/>
<rect x="525.1" y="428.7" class="st3" width="11.5" height="9.2"/>
<rect x="506.2" y="428.7" class="st3" width="11.5" height="9.2"/>
<rect x="525.1" y="452.1" class="st3" width="11.5" height="9.2"/>
<rect x="506.2" y="452.1" class="st3" width="11.5" height="9.2"/>
<rect x="506.2" y="475.6" class="st3" width="11.5" height="9.2"/>
<rect x="506.2" y="499" class="st3" width="11.5" height="9.2"/>
<rect x="591.9" y="385.7" class="st3" width="37.2" height="2.8"/>
<rect x="591.9" y="402.7" class="st3" width="37.2" height="2.8"/>
<rect x="591.9" y="419.7" class="st3" width="37.2" height="2.8"/>
<rect x="613.9" y="262.5" class="st3" width="11.5" height="9.2"/>
<rect x="688" y="428.7" class="st3" width="11.5" height="9.2"/>
<rect x="669.1" y="428.7" class="st3" width="11.5" height="9.2"/>
<rect x="688" y="452.1" class="st3" width="11.5" height="9.2"/>
<rect x="669.1" y="452.1" class="st3" width="11.5" height="9.2"/>
<rect x="688" y="475.6" class="st3" width="11.5" height="9.2"/>
<rect x="669.1" y="475.6" class="st3" width="11.5" height="9.2"/>
<rect x="688" y="499" class="st3" width="11.5" height="9.2"/>
<rect x="669.1" y="499" class="st3" width="11.5" height="9.2"/>
<rect x="776.9" y="262.5" class="st3" width="11.5" height="9.2"/>
<circle class="st4" cx="586.1" cy="107" r="26.7"/>
<path class="st3" d="M645.8,94.3c-1.5-5-5.9-8.7-11.2-9.3c-0.1,0-0.1,0-0.2,0c-0.1,0-0.2,0-0.2-0.1c-12.2-1.6-26.3,4.3-31.4,15.8
	c-2.5-3.4-6.6-5.4-10.8-5.3c-5.5,0.4-10.3,4.2-11.8,9.5c-0.2,0.7,0.1,1.3,0.7,1.7c0.8,0.7,1.8,1.2,2.8,1.4c2.2,0.5,4.4,0.9,6.7,1.3
	c4.4,0.8,8.7,1.4,13.1,1.8c8.9,1,17.9,1.3,26.9,1c3-0.1,5.9-0.2,8.6-1.5c2-1,3.7-2.5,4.9-4.3C646.4,102.9,647.1,98.5,645.8,94.3z"/>
<path class="st5" d="M590.3,130c-1.5-5-5.9-8.7-11.2-9.3c-0.1,0-0.1,0-0.2,0c-0.1,0-0.2,0-0.2-0.1c-12.2-1.6-26.3,4.3-31.4,15.8
	c-2.5-3.4-6.6-5.4-10.8-5.3c-5.5,0.4-10.3,4.2-11.8,9.5c-0.2,0.7,0.1,1.3,0.7,1.7c0.8,0.7,1.8,1.2,2.8,1.4c2.2,0.5,4.4,0.9,6.7,1.3
	c4.4,0.8,8.7,1.4,13.1,1.8c8.9,1,17.9,1.3,26.9,1c3-0.1,5.9-0.2,8.6-1.5c2-1,3.7-2.5,4.9-4.3C590.9,138.5,591.6,134.1,590.3,130z"/>
<path class="st6" d="M444.7,50.2c0,16.5-13.3,29.8-29.8,29.8S385,66.7,385,50.3c0-7.7,3-15.1,8.4-20.7l0.1-0.1
	c0.2-0.3,0.5-0.5,0.7-0.7c0,0,0,0,0,0c0,0,0,0,0,0c0.3-0.3,0.6-0.6,0.9-0.8c12.4-10.9,31.2-9.6,42.1,2.8C442,36,444.7,43,444.7,50.2
	L444.7,50.2z"/>
<circle class="st7" cx="407.5" cy="57.1" r="25"/>
<path class="st6" d="M434,64.3l-4.1-0.7c-4.7-0.9-8.4-4.6-9.3-9.3l-4,6.8l-0.2,0.1c-9.6,3.2-19.7,2.2-30.6-2.9
	c-3.1-1.5-6.2-3.2-9.1-5l-0.2-0.1l0-0.3c-0.6-8.1,1.3-14.9,5.1-19.1c3-3.2,7.2-5,11.6-4.8c0.2,0,0.3-0.1,0.4-0.2
	c0.1,0,0.1-0.1,0.2-0.1v0l0.3-0.1c0.6-0.3,1.2-0.6,1.9-0.8c10.1-3.9,21.5-1.7,29.4,5.7c7.7,7.4,11.2,19.7,8.8,30.7L434,64.3z"/>
<path class="st6" d="M486.8,85.6c-8.5-4.4,2.4-20.3,0.2-29.7c-2.2-9.3-18-12.3-19-21.8s-3.4-19.3-9.7-26.6c-4-4.6-9.9-8-16-7.4
	c-7.9,0.8-13.7,7.8-13,15.7c0.1,0.7,0.2,1.4,0.4,2.1c-1.7-2.5-6.2-1.9-7.3,0.9c-1,2.5,1.2,5.5,3.8,5.7c3.4,4.1,7.2,8.6,12.5,9.4
	c1.7,0.4,3.5,0,4.8-1.1c1.2-1.2,1.3-3.6-0.1-4.5c6.6,2.6,10.5,9.8,11.5,16.8c1,7.1-0.4,14.2-1.3,21.2s-1.3,14.5,1.5,21.1
	c3.3,7.7,10.8,13.3,19,15.1s17,0,24.4-3.9c7.4-3.9,13.6-9.9,18.7-16.6C508.4,88.2,496.3,90.5,486.8,85.6z"/>
<path class="st4" d="M433,63.6c0,0-7.4-27.7-39.2-34c0,0-0.2-0.1-0.3-0.1c-0.1-0.1-0.2-0.1-0.3-0.2c0.4-0.2,0.7-0.4,1.1-0.6
	c0,0,0,0,0,0c0,0,0,0,0,0c0.3-0.3,0.6-0.6,0.9-0.8l0.9,0C396.1,27.9,428,22.8,433,63.6z"/>
<path class="st7" d="M383.3,306.9c2.3-4.3,0.7-9.8-3.6-12.1c-0.5-0.3-0.9-0.5-1.4-0.6l-0.5-31.8l-13.7,9.3l2.6,28.8
	c-1.2,4.8,1.7,9.7,6.5,11C377.2,312.4,381.4,310.6,383.3,306.9L383.3,306.9z"/>
<path class="st6" d="M405.2,93l-12.5,11.7c-14.3,0-6,6.8-14.4,18.3l0,0c-4.7,6.4-7.6,13.9-8.5,21.7l-9.1,28.4l-8.8,93.9l10.5,2.6
	l-4.4,13.2h31.5l-4.3-14l4.8-4.8l-4.4-30.7l14.9,2.6C400.6,235.9,453,132.9,405.2,93z"/>
<polygon class="st8" points="390.1,190.6 372.8,308.6 467.1,301.5 438.9,185.4 "/>
<polygon class="st7" points="403.2,546 392.6,546 387.6,505.1 403.2,505.1 "/>
<path class="st6" d="M406.8,540.8l-3.6-0.2l-11.3-0.7l-1.8-0.1v7.2l-15.9,11c-2,1.4-2.6,4.2-1.2,6.2c0.8,1.2,2.2,1.9,3.7,1.9h19.9
	l3.4-7.1l1.3,7.1h7.5L406.8,540.8z"/>
<polygon class="st7" points="503.3,540.7 493,543 479.4,504.1 494.7,500.8 "/>
<path class="st6" d="M505.7,534.8l-3.5,0.5l-11.2,1.8l-1.8,0.3l1.5,7l-13.2,14.1c-1.7,1.8-1.6,4.6,0.2,6.3c1.1,1,2.6,1.4,4,1.1
	l19.5-4.2l1.8-7.7l2.8,6.7l7.3-1.6L505.7,534.8z"/>
<path class="st6" d="M370.4,363.5c7.4,40.9,5.1,14.9,5.1,14.9s-5.6,6.5-1.9,10.2s0,11.1,0,11.1L387,507.8l2.1,9.3h14.5l1-12.5
	l6.6-60.4c0,0,3.7-7.4,1.9-9.3c-1.9-1.9,1.9-13,1.9-13l4.6-88.2l17.4,54c0,0-2.8,3.7,0,6.5c2.8,2.8,19.8,59.3,19.8,59.3l20.5,49.1
	l1,1l5.2,13.5l13.5-6.2l-8-69.2l-0.3-1.5l-0.4-1.6c0,0,1.9-4.6-0.9-7.4c-1.7-1.7-2.3-4.2-1.9-6.5c0.1-0.1,0.2-0.2,0.2-0.3
	c0.3-0.5,0.6-1,0.7-1.5c0.2-1.2,0-2.8-1.8-4.7c-0.5-0.6-1-1.2-1.3-1.9c-2.8-5.3-4.2-16.7-4.2-16.7s-2.5-89.7-10.7-103.4
	c-0.4-0.7-12.4-50-12.8-50.3c-9.3-5.6-75.5,9.7-75.5,9.7s-11.6,39.8-11.8,41C367.2,303.5,364.1,328.8,370.4,363.5z"/>
<path class="st4" d="M457.5,150.4c-0.1-0.5-0.1-1-0.2-1.6c-0.8-5.2,2.6-9.7-1.8-13.3c-1-0.8-1.9-1.9-2.4-3l-1-2l-1.8-3.7l-4.7-9.5
	c-0.8-1.6-2-2.9-3.5-3.8l-10-6c-1.5-0.9-2.8-2.3-3.6-3.9l-0.2-0.5c-1.1-2.3-3.1-7.7-5.4-10c-0.5-0.6-1.2-1-2-1.1l-10-1
	c-3.2-0.3-6.4,1.1-8.3,3.7l-0.3,1.2l-1.6,7.3l-0.1,0c-0.5,0.1-0.9,0.2-1.4,0.4c-10.3,2.8-14.6,38.9-14.6,38.9s-7.2,11.9-4.4,19.3
	l5.1,11.9c0,0.1,0.1,0.2,0.1,0.3c0.5,1.3,0.6,2.7,0.5,4l0,0.5l0.5,32.6l0,2.5l-8.3,36.3c-0.3,2.4,0.4,4.8,1.9,6.7
	c0.2,0.2,0.4,0.5,0.6,0.7c0.2,0.2,0.4,0.4,0.6,0.6c2,1.8,4.8,2.6,7.4,2.2l1.1-0.2l16.2-2.4l1.9-0.3l18.1-2.7l3.1-0.5
	c0.2,0,0.5-0.1,0.7-0.1l16.6-1.1c0.4,0,0.8-0.1,1.1-0.1c3-0.6,5.5-2.6,6.7-5.3c0.3-0.5,0.4-1.1,0.6-1.7c0.1-0.6,0.2-1.3,0.2-1.9
	l0.2-15.6l0.6-50.5c0-1.7,0.5-3.3,1.4-4.8C459.5,168.7,458.9,159.7,457.5,150.4z"/>
<path class="st7" d="M430,287.6c-0.9-4.9,2.3-9.5,7.2-10.4c0.5-0.1,1-0.1,1.6-0.1l10.3-30.1l10.1,13.1l-11.4,26.5
	c-0.3,5-4.6,8.7-9.5,8.4C434.2,294.8,430.8,291.7,430,287.6z"/>
<path class="st6" d="M419.7,92.5L419.7,92.5c11.3,0,25,21.9,31.7,31l2.8,3.8c4.7,6.4,7.6,13.9,8.5,21.7l3.1,28.4v7.3l3.8,39.5
	l-2.3,5.9l-3.2,36.3l0,0c-5.4,1.3-8.7,6.8-7.3,12.2c0.1,0.2,0.1,0.5,0.2,0.7l1,2.9l-32.5-10l2.3-7.6c1.2-4,0.2-8.3-2.8-11.3l0,0
	l1.4-10.4l-20.3,15.4C405.9,258.4,371.8,132.5,419.7,92.5z"/>
<rect x="788.3" y="301.7" class="st3" width="28.3" height="6"/>
<rect x="788.3" y="319.7" class="st3" width="28.3" height="6"/>
<rect x="788.3" y="337.7" class="st3" width="28.3" height="6"/>
<rect x="788.3" y="355.7" class="st3" width="28.3" height="6"/>
<rect x="788.3" y="373.7" class="st3" width="28.3" height="6"/>
<rect x="788.3" y="391.7" class="st3" width="28.3" height="6"/>
<path class="st3" d="M430.3,64.7c0-1.1-0.9-2-2-2c-1.1,0-2,0.9-2,2c0,0.5,0.2,1,0.6,1.4l-3.7,5.3c-0.3,0.5-0.2,1.1,0.3,1.4
	c0.5,0.3,1.1,0.2,1.4-0.3l0,0l4.1-6C429.8,66.3,430.3,65.5,430.3,64.7z"/>
<path class="st6" d="M428.6,65.9L428.6,65.9c0.2,0.1,0.3,0.4,0.2,0.7l-1,1.7c-0.1,0.2-0.4,0.3-0.7,0.2l0,0c-0.2-0.1-0.3-0.4-0.2-0.7
	l1-1.7C428,65.8,428.3,65.7,428.6,65.9z"/>
</svg>
