<?xml version="1.0" encoding="utf-8"?>
<!-- Generator: Adobe Illustrator 26.0.1, SVG Export Plug-In . SVG Version: 6.00 Build 0)  -->
<svg version="1.1" id="Layer_1" xmlns="http://www.w3.org/2000/svg" xmlns:xlink="http://www.w3.org/1999/xlink" x="0px" y="0px"
	 viewBox="0 0 1070.1 619.4" style="enable-background:new 0 0 1070.1 619.4;" xml:space="preserve">
<style type="text/css">
	.st0{fill:#3F3D56;}
	.st1{fill:#2F2E41;}
	.st2{fill:#E6E8EC;}
	.st3{fill:#FF6482;}
	.st4{opacity:0.2;enable-background:new    ;}
	.st5{fill:#F2F2F2;}
	.st6{fill:#FFFFFF;}
	.st7{fill:#FBBEBE;}
</style>
<path class="st0" d="M549.8,526c-2.8,0-5.6,0-8.3-0.1l0.1-2c4,0.1,8,0.2,12,0.1l0,2C552.3,526,551.1,526,549.8,526z M565.6,525.5
	l-0.1-2c4-0.2,8-0.6,11.9-1l0.2,2C573.6,525,569.6,525.3,565.6,525.5z M529.5,525.2c-4-0.3-8-0.7-12-1.2l0.2-2
	c3.9,0.5,7.9,0.9,11.9,1.2L529.5,525.2z M589.5,523l-0.3-2c3.9-0.6,7.9-1.3,11.8-2.1l0.4,2C597.5,521.7,593.5,522.4,589.5,523z
	 M505.6,522.3c-3.9-0.7-7.9-1.4-11.8-2.3l0.4-2c3.9,0.8,7.8,1.6,11.7,2.3L505.6,522.3z M613.1,518.3l-0.5-1.9c3.9-1,7.7-2,11.5-3.1
	l0.6,1.9C620.9,516.3,617,517.4,613.1,518.3z M482,517.2c-3.9-1-7.8-2.2-11.6-3.4l0.6-1.9c3.8,1.2,7.6,2.3,11.5,3.3L482,517.2z
	 M636.2,511.5l-0.7-1.9c3.7-1.3,7.5-2.7,11.2-4.2l0.7,1.9C643.8,508.8,640,510.2,636.2,511.5z M459.1,509.9
	c-3.8-1.4-7.5-2.9-11.2-4.4l0.8-1.8c3.7,1.5,7.4,3,11.1,4.4L459.1,509.9z M658.5,502.5l-0.8-1.8c3.6-1.6,7.2-3.4,10.7-5.2l0.9,1.8
	C665.8,499.1,662.2,500.9,658.5,502.5z M436.8,500.6c-3.6-1.7-7.2-3.5-10.8-5.4l0.9-1.8c3.5,1.9,7.1,3.7,10.7,5.4L436.8,500.6z
	 M679.9,491.6l-1-1.7c3.4-2,6.9-4,10.2-6.1l1.1,1.7C686.9,487.5,683.4,489.6,679.9,491.6z M415.6,489.2c-3.4-2-6.9-4.2-10.2-6.4
	l1.1-1.7c3.3,2.2,6.7,4.3,10.1,6.4L415.6,489.2z M700.3,478.8l-1.1-1.6c3.2-2.3,6.5-4.6,9.6-7.1l1.2,1.6
	C706.8,474.1,703.5,476.5,700.3,478.8L700.3,478.8z M395.4,475.9c-3.2-2.3-6.5-4.8-9.6-7.3l1.2-1.6c3.1,2.5,6.3,4.9,9.5,7.2
	L395.4,475.9z M719.3,464.1l-1.3-1.5c3-2.6,6-5.2,9-7.9l1.4,1.5C725.4,458.8,722.4,461.5,719.3,464.1L719.3,464.1z M376.6,460.9
	c-3-2.6-6-5.4-8.9-8.1l1.4-1.4c2.9,2.7,5.8,5.5,8.8,8.1L376.6,460.9z M737,447.7l-1.4-1.4c2.8-2.8,5.5-5.8,8.2-8.7l1.5,1.3
	C742.6,441.9,739.8,444.9,737,447.7L737,447.7z M359.2,444.2c-2.8-2.9-5.5-5.9-8.1-8.9l1.5-1.3c2.6,3,5.3,6,8,8.8L359.2,444.2z
	 M753.1,429.9l-1.5-1.3c2.5-3.1,5-6.2,7.4-9.4l1.6,1.2C758.2,423.6,755.7,426.8,753.1,429.9z M343.5,426.1c-2.5-3.1-4.9-6.4-7.2-9.6
	l1.6-1.2c2.3,3.2,4.7,6.4,7.2,9.5L343.5,426.1z M767.6,410.6l-1.7-1.1c2.2-3.3,4.4-6.7,6.5-10l1.7,1
	C772,403.8,769.8,407.3,767.6,410.6L767.6,410.6z M329.4,406.5c-2.2-3.3-4.3-6.8-6.3-10.2l1.7-1c2,3.4,4.1,6.8,6.3,10.1L329.4,406.5
	z M780.2,390l-1.8-1c1.9-3.5,3.8-7,5.5-10.6l1.8,0.9C784,382.9,782.1,386.5,780.2,390z M317.2,385.8c-1.9-3.5-3.7-7.1-5.4-10.8
	l1.8-0.9c1.7,3.6,3.5,7.2,5.3,10.7L317.2,385.8z M790.8,368.4l-1.8-0.8c1.6-3.6,3.1-7.4,4.5-11.1l1.9,0.7
	C794,361,792.5,364.7,790.8,368.4L790.8,368.4z M306.9,364.1c-1.5-3.7-3-7.4-4.4-11.2l1.9-0.7c1.4,3.7,2.8,7.5,4.3,11.1L306.9,364.1
	z M799.5,345.9l-1.9-0.6c1.2-3.8,2.4-7.6,3.5-11.4l1.9,0.5C801.9,338.2,800.8,342.1,799.5,345.9L799.5,345.9z M298.7,341.5
	c-1.2-3.8-2.3-7.7-3.3-11.6l1.9-0.5c1,3.8,2.1,7.7,3.3,11.5L298.7,341.5z M806,322.7l-1.9-0.5c0.9-3.9,1.7-7.8,2.4-11.7l2,0.4
	C807.7,314.8,806.9,318.8,806,322.7L806,322.7z M292.6,318.2c-0.8-3.9-1.6-7.9-2.2-11.8l2-0.3c0.6,3.9,1.4,7.9,2.2,11.7L292.6,318.2
	z M810.4,299l-2-0.3c0.5-3.9,1-7.9,1.4-11.9l2,0.2C811.4,291,810.9,295.1,810.4,299L810.4,299z M288.7,294.4c-0.5-4-0.9-8-1.2-12
	l2-0.1c0.3,4,0.7,8,1.1,11.9L288.7,294.4z M812.5,275l-2-0.1c0.2-4,0.3-8,0.3-11.9h2C812.8,267,812.7,271,812.5,275L812.5,275z
	 M286.9,270.4c-0.1-2.5-0.1-5-0.1-7.4c0-1.5,0-3.1,0-4.6l2,0c0,1.5,0,3,0,4.6c0,2.5,0,4.9,0.1,7.4L286.9,270.4z M810.8,260.2
	c0-4-0.2-8-0.4-11.9l2-0.1c0.2,4,0.4,8,0.4,12L810.8,260.2z M289.3,246.5l-2-0.1c0.2-4,0.6-8,1-12l2,0.2
	C289.9,238.5,289.6,242.5,289.3,246.5z M809.5,236.4c-0.4-3.9-0.9-7.9-1.5-11.9l2-0.3c0.6,4,1.1,8,1.5,11.9L809.5,236.4z
	 M291.9,222.7l-2-0.3c0.6-4,1.3-7.9,2.1-11.9l2,0.4C293.2,214.9,292.5,218.8,291.9,222.7z M806,212.7c-0.8-3.9-1.6-7.8-2.6-11.7
	l1.9-0.5c0.9,3.9,1.8,7.8,2.6,11.8L806,212.7z M296.6,199.3l-1.9-0.5c1-3.9,2-7.8,3.2-11.6l1.9,0.6
	C298.7,191.6,297.6,195.5,296.6,199.3z M800.3,189.5c-1.1-3.8-2.3-7.6-3.6-11.4l1.9-0.7c1.3,3.8,2.5,7.6,3.7,11.5L800.3,189.5z
	 M303.5,176.4l-1.9-0.7c1.3-3.8,2.8-7.6,4.3-11.3l1.9,0.8C306.3,168.9,304.8,172.7,303.5,176.4z M792.6,166.9c-1.5-3.7-3-7.4-4.6-11
	l1.8-0.8c1.6,3.6,3.2,7.4,4.7,11.1L792.6,166.9z M312.5,154.2l-1.8-0.8c1.7-3.6,3.4-7.3,5.3-10.8l1.8,0.9
	C315.9,147,314.2,150.6,312.5,154.2z M782.8,145.2c-1.8-3.5-3.7-7.1-5.6-10.5l1.7-1c2,3.5,3.9,7,5.7,10.6L782.8,145.2z M323.5,132.9
	l-1.7-1c2-3.5,4.1-6.9,6.3-10.3l1.7,1.1C327.6,126.1,325.5,129.5,323.5,132.9z M771,124.4c-2.1-3.4-4.3-6.7-6.6-10l1.6-1.1
	c2.3,3.3,4.5,6.6,6.6,10L771,124.4z M336.4,112.8l-1.6-1.2c2.3-3.3,4.7-6.5,7.2-9.7l1.6,1.2C341,106.3,338.6,109.5,336.4,112.8z
	 M757.4,104.8c-2.4-3.2-4.9-6.3-7.5-9.3l1.5-1.3c2.6,3.1,5.1,6.2,7.5,9.4L757.4,104.8z M351,93.9l-1.5-1.3c2.6-3,5.3-6.1,8-9L359,85
	C356.3,87.9,353.6,90.9,351,93.9z M742.1,86.5c-2.7-2.9-5.5-5.8-8.3-8.6l1.4-1.4c2.8,2.8,5.6,5.7,8.3,8.7L742.1,86.5z M367.3,76.4
	l-1.4-1.4c2.9-2.8,5.8-5.6,8.8-8.2l1.3,1.5C373.1,70.9,370.2,73.6,367.3,76.4L367.3,76.4z M725.1,69.6c-2.9-2.7-6-5.3-9-7.8l1.3-1.5
	c3.1,2.5,6.1,5.2,9.1,7.9L725.1,69.6z M385.1,60.5l-1.3-1.6c3.1-2.5,6.3-5,9.5-7.4l1.2,1.6C391.4,55.5,388.2,58,385.1,60.5
	L385.1,60.5z M706.7,54.4c-3.2-2.4-6.4-4.7-9.7-7l1.1-1.7c3.3,2.3,6.6,4.6,9.8,7L706.7,54.4z M404.3,46.3l-1.1-1.7
	c3.3-2.2,6.7-4.4,10.1-6.5l1,1.7C411,41.9,407.6,44.1,404.3,46.3L404.3,46.3z M687,40.9c-3.4-2.1-6.9-4.1-10.3-6.1l1-1.7
	c3.5,1.9,7,4,10.4,6.1L687,40.9z M424.7,33.9l-1-1.8c3.5-1.9,7.1-3.8,10.7-5.5l0.9,1.8C431.7,30.1,428.2,32,424.7,33.9z M666.1,29.3
	c-3.6-1.8-7.2-3.5-10.8-5.1l0.8-1.8c3.7,1.6,7.3,3.3,10.9,5.1L666.1,29.3z M446.1,23.4l-0.8-1.8c3.7-1.6,7.4-3.1,11.1-4.5l0.7,1.9
	C453.5,20.3,449.8,21.8,446.1,23.4L446.1,23.4z M644.2,19.6c-3.7-1.4-7.5-2.8-11.3-4.1l0.6-1.9c3.8,1.3,7.6,2.7,11.4,4.1L644.2,19.6
	z M468.4,14.9l-0.6-1.9c3.8-1.2,7.7-2.4,11.5-3.5l0.5,1.9C476.1,12.5,472.2,13.7,468.4,14.9L468.4,14.9z M621.5,12
	c-3.8-1.1-7.7-2.1-11.6-3l0.5-1.9c3.9,0.9,7.8,1.9,11.7,3L621.5,12z M491.5,8.6L491,6.6c3.9-0.9,7.9-1.7,11.8-2.4l0.4,2
	C499.3,6.9,495.3,7.7,491.5,8.6z M598.2,6.5c-3.9-0.7-7.9-1.4-11.8-1.9l0.3-2c4,0.6,8,1.2,11.9,1.9L598.2,6.5z M515,4.3l-0.3-2
	c4-0.5,8-1,12-1.3l0.2,2C522.9,3.3,518.9,3.8,515,4.3L515,4.3z M574.6,3.2c-3.9-0.4-7.9-0.7-11.9-0.8l0.1-2c4,0.2,8,0.5,12,0.9
	L574.6,3.2z M538.8,2.2l-0.1-2c3.7-0.2,7.4-0.2,11.1-0.2l0.9,0l0,2l-0.9,0C546.1,2,542.4,2.1,538.8,2.2L538.8,2.2z"/>
<path class="st1" d="M806,481.3c-6.6,0-12-5.4-12-12s5.4-12,12-12s12,5.4,12,12C818,475.9,812.6,481.3,806,481.3z M806,459.3
	c-5.5,0-10,4.5-10,10s4.5,10,10,10s10-4.5,10-10C816,463.8,811.5,459.3,806,459.3z"/>
<path class="st0" d="M486.8,173.4v65.7c0,1.3-1,2.3-2.3,2.3h-1.6v342.1c0,19.7-16,35.7-35.7,35.7H233.4c-19.7,0-35.7-16-35.7-35.7
	c0,0,0,0,0,0V253.4h-1.2c-0.9,0-1.6-0.7-1.6-1.6v-37.4c0-0.9,0.7-1.6,1.6-1.6c0,0,0,0,0,0h1.2v-14.1h-1.2c-0.9,0-1.7-0.8-1.7-1.7
	v-36.9c0-0.9,0.8-1.7,1.7-1.7h1.2v-19.2h-1.2c-0.8,0-1.5-0.7-1.5-1.5c0,0,0,0,0,0v-20.1c0-0.8,0.7-1.5,1.5-1.5h1.2V75.3
	c0-19.7,16-35.7,35.7-35.7h213.8c19.7,0,35.7,16,35.7,35.7v95.8h1.6C485.8,171.1,486.8,172.1,486.8,173.4z"/>
<path class="st2" d="M315.8,58h34.7c1.4,0,2.5,1.1,2.5,2.5v3c0,1.4-1.1,2.5-2.5,2.5h-34.7c-1.4,0-2.5-1.1-2.5-2.5v-3
	C313.3,59.1,314.4,58,315.8,58z"/>
<circle class="st2" cx="363.7" cy="62" r="4.6"/>
<path class="st3" d="M465.8,82.4v504.1c0,12.5-10.1,22.6-22.6,22.6H238.5c-12.5,0-22.6-10.1-22.6-22.6c0,0,0,0,0-0.1V82.4
	c0-12.5,10.1-22.6,22.6-22.6c0,0,0,0,0,0h30.6v3.9c0,10.3,8.3,18.6,18.6,18.6h104.1c10.3,0,18.6-8.3,18.6-18.6v-3.9h32.6
	C455.6,59.7,465.8,69.9,465.8,82.4C465.8,82.4,465.8,82.4,465.8,82.4z"/>
<rect x="225.8" y="225" class="st4" width="232" height="113"/>
<rect x="589.8" y="96" class="st5" width="232" height="113"/>
<rect x="225.8" y="396.3" class="st0" width="232" height="113"/>
<circle class="st6" cx="433.8" cy="121.3" r="20"/>
<polygon class="st0" points="442.8,120.6 434.5,120.6 434.5,112.3 433.2,112.3 433.2,120.6 424.8,120.6 424.8,121.9 433.2,121.9 
	433.2,130.3 434.5,130.3 434.5,121.9 442.8,121.9 "/>
<rect x="563.8" y="81" class="st0" width="232" height="113"/>
<path class="st6" d="M667.4,156.9c6.1,22.5,26.9,36.4,26.9,36.4s11-22.5,4.9-44.9s-26.9-36.4-26.9-36.4S661.3,134.4,667.4,156.9z"/>
<path class="st3" d="M676.3,152c16.7,16.2,18.7,41.2,18.7,41.2s-25-1.4-41.6-17.6s-18.7-41.2-18.7-41.2S659.7,135.8,676.3,152z"/>
<path class="st6" d="M319.2,473.9c6.1,22.5,26.9,36.4,26.9,36.4s11-22.5,4.9-44.9s-26.9-36.4-26.9-36.4S313.2,451.4,319.2,473.9z"/>
<path class="st3" d="M328.2,469c16.7,16.2,18.7,41.2,18.7,41.2s-25-1.4-41.6-17.6s-18.7-41.2-18.7-41.2S311.5,452.8,328.2,469z"/>
<path class="st6" d="M374.5,473.9c-6.1,22.5-26.9,36.4-26.9,36.4s-11-22.5-4.9-44.9s26.9-36.4,26.9-36.4S380.6,451.4,374.5,473.9z"
	/>
<path class="st3" d="M365.6,469c-16.7,16.2-18.7,41.2-18.7,41.2s25-1.4,41.6-17.6s18.7-41.2,18.7-41.2S382.2,452.8,365.6,469z"/>
<path class="st0" d="M615.8,336.6h-19.7v-19.7h19.7V336.6z M597.6,335h16.7v-16.7h-16.7V335z"/>
<path class="st1" d="M97.5,458.6L84,444.2l14.4-13.5l13.5,14.4L97.5,458.6z M86.2,444.3l11.4,12.2l12.2-11.4l-11.4-12.2L86.2,444.3z
	"/>
<circle class="st0" cx="108.1" cy="138" r="10.1"/>
<path class="st1" d="M108.1,167.1C92.1,167.1,79,154,79,138s13-29.1,29.1-29.1s29.1,13,29.1,29.1l0,0
	C137.2,154,124.2,167.1,108.1,167.1z M108.1,111.1c-14.8,0-26.9,12-26.9,26.9c0,14.8,12,26.9,26.9,26.9c14.8,0,26.9-12,26.9-26.9
	C135,123.1,123,111.1,108.1,111.1z"/>
<rect y="617.3" class="st0" width="1039.8" height="2"/>
<rect x="275.8" y="207" class="st0" width="232" height="113"/>
<rect x="391" y="245.7" class="st6" width="2" height="74.4"/>
<circle class="st3" cx="392" cy="246.7" r="10.5"/>
<path class="st6" d="M392,291.6c0,0-1.5-32.3-32.3-28.6"/>
<path class="st7" d="M714,514.4l-128.7,40.3l-160.1-101l0,0l-0.5-0.3l-0.1-0.1l-1.3-0.8l-15.2-9.6c0-0.3,0.1-0.5,0.1-0.8
	c0.2-1.2,0.8-2.3,1.6-3.2c0.3-0.3,0.6-0.6,0.9-0.9h0c0.1-0.1,0.3-0.2,0.5-0.4c0.2-0.1,0.3-0.2,0.5-0.3c2.9-2,7.4-2.8,12-3.1
	c10-0.5,19.9,1.7,28.9,6.3c18,9.1,56.7,27,62.7,16c7.9-14.4-82-174.7-82-174.7c-7.4-19-2-25.2,1.4-27.2c0.1-0.1,0.2-0.1,0.3-0.2
	c0.4-0.2,0.7-0.3,1.1-0.5c0.2-0.1,0.4-0.1,0.6-0.2c0.1,0,0.1,0,0.2,0l11.9,15.8l0.2,0.2l0.6,0.9l0.2,0.3l72.3,96
	c110.7-59.7,148.8,99.9,148.8,99.9L714,514.4z"/>
<path class="st0" d="M449.8,271c-0.5,1.1-1.7,1.8-2.9,1.8c-0.4,0-0.8-0.1-1.2-0.2c-2.7-0.7-5.8-3.7-8.1-7.7
	c-2.3-3.9-3.2-7.8-2.7-10.5c0.4-0.2,0.7-0.3,1.1-0.5c0.2-0.1,0.4-0.1,0.6-0.2c-0.9,1.8-0.4,6,2.2,10.4c2.1,3.6,4.9,6.4,7.2,7
	c1,0.4,2.1-0.1,2.6-1.1c0.1-0.2,0.1-0.3,0.1-0.5l0.2,0.2l0.6,0.9L449.8,271z"/>
<path class="st0" d="M424.7,453.3L424.7,453.3l-1.4-0.9c0-2-1.5-5.4-5-8.8c-2.9-2.8-6.3-4.7-8.6-4.8c0.3-0.3,0.6-0.6,0.9-0.9h0
	c0.1-0.1,0.3-0.2,0.5-0.4c3.1,0.9,6,2.6,8.2,5C423.2,446.3,425.2,450.6,424.7,453.3z"/>
<path class="st3" d="M947.7,453.2c28.3,85,18.3,164.9,18.3,164.9s-55.7-58-84-143s-18.3-164.9-18.3-164.9S919.5,368.2,947.7,453.2z"
	/>
<path class="st3" d="M984.4,453.2c-28.3,85-18.3,164.9-18.3,164.9s55.7-58,84-143s18.3-164.9,18.3-164.9S1012.7,368.2,984.4,453.2z"
	/>
<path class="st0" d="M995.8,454.1c1.9,89.6-31.2,162.9-31.2,162.9s-36.1-71.9-38-161.5s31.2-162.9,31.2-162.9
	S993.9,364.5,995.8,454.1z"/>
<circle class="st3" cx="961.2" cy="374.9" r="8.8"/>
<circle class="st3" cx="944.1" cy="445.1" r="4.9"/>
<circle class="st0" cx="884.7" cy="396.9" r="4.9"/>
<circle class="st0" cx="1056.7" cy="349.6" r="4.9"/>
<circle class="st0" cx="910" cy="442.7" r="4.9"/>
<circle class="st0" cx="1012.3" cy="414.4" r="4.9"/>
<circle class="st0" cx="913" cy="514.3" r="4.9"/>
<circle class="st0" cx="1017.2" cy="486.5" r="4.9"/>
<circle class="st3" cx="970" cy="491.4" r="4.9"/>
</svg>
